# xmcd CD database file
#
# Track frame offsets:
#	150
#	12717
#	26945
#	39862
#	53165
#	66407
#	79195
#	93567
#	107892
#	121997
#	135152
#	147265
#	159805
#	170542
#	182300
#	194172
#	206452
#	219132
#	232982
#	245462
#	257022
#	270250
#	284285
#	295777
#	307095
#	315570
#	326777
#
# Disc length: 4636 seconds
#
# Revision: 6
# Processed by: cddbd v1.5.2PL0 Copyright (c) Steve Scherf et al.
# Submitted via: CDex 1.79
#
DISCID=83121a1b
DTITLE=Sony Music - Country: The American Tradition  Disc 1
DYEAR=1999
DGENRE=Country
TTITLE0=Fiddlin John Cannon - Little Old Log Cabin In The Lane
TTITLE1=Samantha Bumgarner - Cindy In The Meadows
TTITLE2=Charlie Poole with the North Carolina Ramblers - Don't Let Your Deal Go Down Blues
TTITLE3=Gid Tanner and His Skillet Lickers with Riley Puckett and Clayton McMichen - Soldier's Joy
TTITLE4=Joe Falcon - Lafayette (Allons A Lafayette)
TTITLE5=Emmett Miller and His Georgia Crackers - Lovesick Blues
TTITLE6=Gabriel Reeves - Hobo's Lullaby
TTITLE7=The Carter Family - Can The Circle Be Unbroken
TTITLE8=Patsy Montana and The Prairie Ramblers - I Want To Be A Cowboy's Sweetheart
TTITLE9=Roy Acuff and His Crazy Tennesseans - The Great Speckle Bird
TTITLE10=The Chuck Wagon Gang - A Beautiful Life
TTITLE11=The Sons of the Pioneers - Song Of The Bandit
TTITLE12=Roy Hall and His Blue Ridge Entertainers - Orange Blossom Special
TTITLE13=Gene Autry - Back In The Saddle Again
TTITLE14=Bob Wills and The Texas Playboys - New San Antonio Rose
TTITLE15=Ted Dalfan's Texans - Born To Lose
TTITLE16=Al Dexter and His Troopers - Pistol Packin' Mama
TTITLE17=Bill Monroe and His Blue Grass Boys - Blue Moon Of Kentucky
TTITLE18=Floyd Tillman - Slippin' Around
TTITLE19=The Stanley Brothers with The Clinch Mountain Boys - The Fields Have Turned Brown
TTITLE20=Little Jimmy Dickens - Hillbilly Fever
TTITLE21=Lefty Frizzell - Always Late (With Your Kisses)
TTITLE22=Carl Smith - Loose Talk
TTITLE23=Ray Price - Crazy Arms
TTITLE24=The Collins Kids - Hop, Skip And Jump
TTITLE25=Johnny Horton - The Battle Of New Orleans
TTITLE26=Marty Robbins - El Paso
EXTD=YEAR: 1999
EXTT0=
EXTT1=
EXTT2=
EXTT3=
EXTT4=
EXTT5=
EXTT6=
EXTT7=
EXTT8=
EXTT9=
EXTT10=
EXTT11=
EXTT12=
EXTT13=
EXTT14=
EXTT15=
EXTT16=
EXTT17=
EXTT18=
EXTT19=
EXTT20=
EXTT21=
EXTT22=
EXTT23=
EXTT24=
EXTT25=
EXTT26=
PLAYORDER=
